<svg id="a" xmlns="http://www.w3.org/2000/svg" width="1280" height="2240"><defs><style>.bc{fill:#fcfaec}</style></defs><g id="b"><g id="c"><path id="d" class="bc" d="M173.176 941.444c-1.943.024-3.85.522-5.557 1.452-1.324.628-2.72 1.153-4.084 1.688a3.402 3.402 0 0 0-2.427 3.189 3.308 3.308 0 0 0 3.304 3.303c3.58-.445 7.563-.562 10.75-2.301a3.975 3.975 0 0 0-1.986-7.331Z"/><path id="e" class="bc" d="M177.473 917.032a3.883 3.883 0 0 0-.774-6.009c-2.785-1.527-5.502-.337-8.369.377s-5.739 1.232-8.578 2.052a2.576 2.576 0 0 0 0 4.934c2.827.686 5.737.968 8.643.836 2.931-.046 7.057.262 9.078-2.19Z"/><path id="f" class="bc" d="M173.312 882.092a19.758 19.758 0 0 0 6.427 3.328 4.059 4.059 0 0 0 3.904-1.033 4.107 4.107 0 0 0 .628-4.862c-.998-1.706-2.929-2.093-4.638-2.72-3.074-1.13-6.093-2.511-9.095-3.819a2.682 2.682 0 0 0-3.235 4.185 27.081 27.081 0 0 0 6.01 4.92Z"/><path id="g" class="bc" d="M197.433 858.052a4.044 4.044 0 0 0 5.898-4.532 21.427 21.427 0 0 0-4.31-6.222c-1.768-2.291-3.423-4.666-5.39-6.798a3.042 3.042 0 0 0-5.054 2.942 47.312 47.312 0 0 0 3.797 7.741 19.018 19.018 0 0 0 5.06 6.869Z"/><path id="h" class="bc" d="M232.399 831.855c1.255 3.09 1.916 6.33 2.979 9.472a4.055 4.055 0 0 0 7.812-2.155 37.09 37.09 0 0 0-10.043-18.28c-1.79-1.674-5.23-.059-4.337 2.525 1.015 2.894 2.431 5.61 3.588 8.438Z"/><path id="i" class="bc" d="M275.83 834.95c1.244-3.084.788-7.346.771-10.631a38.322 38.322 0 0 0-.377-5.201 7.866 7.866 0 0 0-1.569-3.086 2.228 2.228 0 0 0-4.059.627c-.077.103-.16.22-.28.4a4.718 4.718 0 0 0-.465 2.212c-.085 1.368-.299 2.742-.456 4.102-.393 3.348-1.847 7.15-1.487 10.501a4.053 4.053 0 0 0 7.921 1.076Z"/><path id="j" class="bc" d="M310.357 843.795c3.557-1.343 5.65-4.916 7.884-7.827a61.667 61.667 0 0 0 5.27-7.906c1.621-2.959-2.35-6.25-4.758-3.674-1.983 2.124-3.996 4.214-5.948 6.362-2.404 2.643-5.737 5.097-6.975 8.522a3.7 3.7 0 0 0 4.527 4.523Z"/><path id="k" class="bc" d="M340.45 861.883c3.437.67 5.243-2.168 7.164-4.465a134.83 134.83 0 0 1 5.464-6.122 3.243 3.243 0 0 0-3.916-5.071 33.836 33.836 0 0 0-6.654 5.337c-2.16 2.044-5.391 4.43-4.586 7.793a3.557 3.557 0 0 0 2.528 2.528Z"/><path id="l" class="bc" d="M359.562 893.701c3.607.373 7.846-2.898 10.698-4.839 2.598-1.77 5.603-3.877 6.751-6.904.78-2.065-1.52-3.88-3.408-3.406a34.24 34.24 0 0 0-7.216 3.699c-3.1 1.673-7.036 2.268-9.702 4.515-3.017 2.523-.261 6.613 2.877 6.935Z"/><path id="m" class="bc" d="M389.525 916.216c-2.109-2.124-6.476-1.237-9.206-1.232-3.544 0-8.017-1.124-10.913 1.228a4.07 4.07 0 0 0-.028 5.755l.028.028c3.415 2.692 9.367.726 13.39.046a16.922 16.922 0 0 0 5.516-1.578c1.337-.757 2.55-2.904 1.213-4.247Z"/><path id="n" class="bc" d="m182.187 975.045-.475-.186a4.293 4.293 0 0 0-4.322 1.14 13.257 13.257 0 0 1-3.936 2.25c-1.378.698-2.847 1.217-4.213 1.933a3.082 3.082 0 0 0 1.546 5.705c1.618-.11 3.22-.382 4.783-.816a57.233 57.233 0 0 0 2.76-.753 11.341 11.341 0 0 1 2.202-.73 4.507 4.507 0 0 0 4.285-3.262l.122-.433a4.025 4.025 0 0 0-2.752-4.848Z"/><path id="o" class="bc" d="M203.176 1001.273c-2.916.459-4.841 3.664-6.885 5.606a70.164 70.164 0 0 1-6.335 5.18c-2.576 1.935-1.201 6.668 2.345 5.561a34.354 34.354 0 0 0 8.195-3.935c2.69-1.714 7.037-4.158 7.595-7.497a4.067 4.067 0 0 0-4.915-4.915Z"/><path id="p" class="bc" d="M237.363 1024.995c-1.194 5.363-4.54 10.02-5.958 15.342a2.406 2.406 0 0 0 3.992 2.325c4.163-3.94 6.973-9.457 9.915-14.313 3.358-5.555-6.58-9.48-7.949-3.354Z"/><path id="q" class="bc" d="M278.313 1029.023a4.869 4.869 0 0 0-4.779 4.78c.056 2.146.363 4.278.914 6.352a17.877 17.877 0 0 0 2.603 8.449c1.283 1.628 3.557.732 4.574-.59 1.648-2.157 1.464-5.804 1.502-8.382.119-2.368.049-4.743-.21-7.1a4.743 4.743 0 0 0-4.604-3.51Z"/><path id="r" class="bc" d="M317.335 1022.633a4.724 4.724 0 1 0-7.281 5.524c4.184 3.176 7.431 8.057 13.36 7.674 2.706-.174 2.88-3.44 1.359-4.98-2.49-2.52-6.037-4.81-7.438-8.218Z"/><path id="s" class="bc" d="M356.727 1000.252a31.401 31.401 0 0 1-3.736-5.71 4.86 4.86 0 0 0-8.39 0 4.982 4.982 0 0 0 .76 5.888 44.062 44.062 0 0 0 5.61 5.578 18.53 18.53 0 0 0 7.003 4.354 2.977 2.977 0 0 0 3.331-4.33 30.925 30.925 0 0 0-4.578-5.78Z"/><path id="t" class="bc" d="M377.825 958.058c-3.728-1.4-8.611-4.153-12.359-1.845a4.145 4.145 0 0 0-1.464 5.567c1.883 3.7 6.668 3.637 10.308 4.354s7.792 2.302 11.526 1.835a2.705 2.705 0 0 0 1.883-4.555c-2.307-2.96-6.5-4.084-9.894-5.356Z"/><path id="u" class="bc" d="M339.477 899.016a70.577 70.577 0 0 0-32.162-34.731c-13.79-7.02-27.881-7.936-41.934-5.515-33.133-2.687-58.175 29.598-64.615 59.406-6.904 31.995 4.706 68.207 36.614 81.125 30.6 12.388 73.33 4.515 94.107-21.858 17.196-21.835 19.108-53.44 7.99-78.427Zm-29.233 85.128c-30.87 20.467-84.187 14.259-98.91-22.69-13.145-32.99 1.795-75.236 33.528-90.859.621.22 1.29.268 1.935.14 19.958-3.609 38.42-7.25 57.277 2.54 13.1 6.8 22.65 18.98 27.96 32.564 10.79 27.577 3.604 61.482-21.78 78.305h-.01Z"/><path id="v" class="bc" d="M264.79 885.324c-23.889-.418-41.756 33.118-40.706 54.13 1.417 28.245 29.304 39.912 53.909 36.307 23.09-3.383 49.083-24.084 45.152-49.814-3.532-23.113-34.095-50.03-58.354-40.623Zm12.916 80.584c-18.412 4.27-37.58-3.11-43.31-21.989-3.872-12.748 2.141-27.318 10.066-37.133a32.576 32.576 0 0 1 14.525-10.335 4.218 4.218 0 0 0 1.71-.107c22.79-5.942 46.865 5.203 52.62 29.54 4.961 21.016-18.543 36.066-35.611 40.026v-.002Z"/><path id="w" class="bc" d="M273.168 912.295c-5.808-.749-13.809 2.348-15.186 8.639a3.163 3.163 0 0 0-.037.494 15.332 15.332 0 0 0-2.957 9.415c.044 11.375 10.483 18.014 20.965 16.202 12.898-2.23 18.411-15.363 11.047-26.002a20.222 20.222 0 0 0-13.832-8.748Z"/></g></g><path id="x" class="bc" d="M634.567 636.766c1.852-2.805 4.038-6.463 4.86-8.126a21.06 21.06 0 0 1 2.208-3.724 86.253 86.253 0 0 0 4.603-8.765 61.928 61.928 0 0 1 4.59-8.507 14.647 14.647 0 0 1 4.812-.029c14.746 1.484 43.33 3.793 46.657 3.766 6.963-.052 6.762-1.464-1.36-9.59-13.694-13.698-25.525-25.107-27.459-26.511-6.301-4.534-6.207-4.408-5.23-7.015a41.481 41.481 0 0 1 1.941-4.279 15.38 15.38 0 0 0 1.297-3.053 25.74 25.74 0 0 1 1.408-3.644c4.359-9.45 9.987-22.149 11.432-25.791.942-2.377 2.494-6.298 3.448-8.714s3.189-7.323 4.965-10.905a54.176 54.176 0 0 0 3.247-7.348c.025-1.109-1.918-2.14-3.138-1.674a73.523 73.523 0 0 0-13.825 8.972 57.6 57.6 0 0 1-6.277 4.576c-6.852 3.716-13.5 7.799-19.914 12.229-6.904 5.163-16.76 12.287-17.004 12.281a11.01 11.01 0 0 1-1.952-1.584 212.502 212.502 0 0 0-3.253-2.95c-1.544-1.364-17.742-17.61-30.283-30.369-5.68-5.778-6.988-6.793-9.643-7.473-2.862-.734-3.15-.695-4.247.596-1.348 1.59-1.203 4.312.483 8.997a49.134 49.134 0 0 1 1.705 6.695c.368 2.092 1.95 9.12 3.517 15.602 1.567 6.482 3.628 15.794 4.584 20.694 1.586 8.133 1.645 8.961.684 9.518-1.426.837-7.322 4.885-17.365 11.963-4.603 3.245-10.543 7.373-13.196 9.174s-6.486 4.69-8.498 6.421a13.56 13.56 0 0 0-3.693 4.1c-.036 1.832.893 3.407 2.092 3.556.67.09 3.766.7 6.892 1.36 3.129.66 6.29 1.163 9.47 1.504 7.433.598 25.342 2.84 29.234 3.657l3.956.837.81 3.226c1.255 4.976 4.295 22.16 5.65 31.844.378 2.156.9 4.284 1.558 6.37a42.663 42.663 0 0 1 1.515 7.903c.288 3.791.456 4.157 2.406 5.304 2.477 1.465 4.044 1.155 5.073-.975.419-.856 1.061-1.548 1.438-1.54s.546-.21.379-.502c-.406-.755 5.502-12.133 9.423-18.077Zm34.522-106.852c.506-.66 1.08-1.034 1.274-.837s-.06.91-.567 1.57-1.08 1.033-1.272.836.057-.91.555-1.569h.01Zm-8.526.877a1.38 1.38 0 0 1 .657-1.011c.354-.21.628-.092.628.257a1.39 1.39 0 0 1-.657 1.01c-.364.206-.647.09-.638-.25l.01-.006Zm3.463 4.879c.688-.661 1.465.209 1.059 1.184-.21.504-.628.753-.936.554a1.046 1.046 0 0 1-.136-1.74l.013.002Zm-8.135-.184c-.705-1.17-.558-1.722.45-1.7 1.31.03 1.906 1.357.883 1.959a.916.916 0 0 1-1.345-.26h.012Zm14.437 11.568c-.013.544-.308.98-.655.973a.628.628 0 0 1-.628-.611 1.36 1.36 0 0 1 .657-.973c.343-.205.63.069.617.61h.009Zm-10.635-5.982c.012-.521.303-.768.646-.544.396.337.618.836.603 1.356-.012.52-.303.768-.646.544a1.72 1.72 0 0 1-.611-1.354l.008-.002Zm-7.95-1.515c-1.017-1.406-1.047-1.902-.149-2.429 1.07-.628 1.835.565 1.383 2.15-.383 1.334-.46 1.352-1.235.28Zm14.6 12.196c.771.018 1.388 1.895.878 2.68-.257.397-.607.31-.935-.237-.687-1.142-.655-2.458.056-2.443Zm-18.72-7.306c-1.36-1.616-1.622-2.99-.674-3.547.316-.186.73.352.92 1.193s.503 2.057.693 2.703c.272.925.071.856-.94-.35Zm3.25 4.473a14.79 14.79 0 0 1 1.911 4.425 5.306 5.306 0 0 1-1.24-1.898c-.841-1.726-1.228-3.18-.672-2.527ZM601.854 521c.028-1.155 1.172-2.092 1.78-1.448.21.222-.106.875-.708 1.45-1.011.965-1.088.965-1.072-.002Zm29.342 74.935a1.12 1.12 0 0 1-1.295 1.237c-1.436-.034-1.61-.695-.467-1.785s1.793-.887 1.76.548h.002Zm-3.95-5.282-.946 1.686-.942-2.377c-1.165-2.944-1.16-3.335.067-4.308 1.11-.879 1.059-.916 2.042 1.52a3.256 3.256 0 0 1-.223 3.479h.002Zm10.714-2.302c.904 2.132.943 2.78.243 4.02q-.837 1.464-1.883-1.078c-1.317-3.178-1.308-3.038-.283-4.375.768-1.013.937-.887 1.92 1.433h.003Zm34.986 7.532c-.515-1.408-.628-3.452-.195-3.442.718.017 1.505 2.582 1.095 3.576s-.488 1.008-.902-.13l.002-.004Zm20.117 9.733c0 .21-.86.226-1.902.05-1.883-.322-2.417-1.046-1.255-1.732.621-.362 3.17 1 3.153 1.686l.004-.004Zm-18.376-17.614c1.726 1.66 2.301 3.37.642 1.935a8.19 8.19 0 0 1-1.621-2.174c-.586-1.186-.48-1.161.977.243l.002-.004Zm-17.738-10.175-1.323 2.456.082-3.138c.088-3.418.837-5.12 1.92-4.41 1.026.67.804 2.339-.681 5.097l.002-.005Zm-5.833-8.651-.49 1.43-1.14-1.556c-1.33-1.816-1.406-2.282-.446-2.845 1.18-.69 2.624 1.372 2.074 2.975l.002-.004Zm-17.615-17.575a1.624 1.624 0 0 1-1.431.247c-.628-.418-.617-2.155.019-2.128.51.125.99.351 1.41.665.812.56.812.706 0 1.212l.002.004Zm-12.394-13.505c0 .368-.295.487-.638.265s-.628-.53-.628-.686.29-.272.64-.266c.36.017.638.321.624.68l.002.007Zm-9.945-8.5a.657.657 0 0 1 .685-.629h.002c.368 0 .487.297.265.64s-.531.628-.686.628-.274-.297-.267-.644l.001.004Zm4.005 4.171c.527-.663.96-.906.962-.538a4.315 4.315 0 0 1-.954 1.883c-.527.663-.96.906-.962.538a4.298 4.298 0 0 1 .952-1.887l.002.004Zm-11.633-2.128a3.813 3.813 0 0 1 .649-1.569c.351-.515.627-.653.627-.303a3.811 3.811 0 0 1-.65 1.569c-.356.506-.636.646-.628.297l.002.006Zm19.973 12.415c.012-.52.303-.765.646-.544.396.338.618.836.603 1.356-.01.523-.302.768-.647.544a1.722 1.722 0 0 1-.606-1.36l.004.005Zm-6.01-2.213c.185.194-.092.893-.615 1.552s-.95.915-.947.567c.004-.945 1.176-2.53 1.56-2.123l.003.004Zm-15.965-5.814a3.792 3.792 0 0 1 .649-1.57c.35-.514.627-.652.627-.303a3.826 3.826 0 0 1-.65 1.57c-.356.512-.634.648-.626.303Zm34.409 23.6c-.58-1.352-.456-1.837.837-3.274 1.483-1.65 1.53-1.657 1.912-.344a4.345 4.345 0 0 1-.837 3.275l-1.234 1.929-.678-1.586Zm4.16 7.647c.197-.665.535-1.28.99-1.804.528-.665.942-.941.926-.613a4.857 4.857 0 0 1-.992 1.804c-.525.665-.941.941-.923.613h-.002Zm-28.886-15.71c1.046-1.503 1.274-1.6 1.609-.666.443 1.24.519 1.132-1.404 2.076-1.739.857-1.745.811-.205-1.41Zm12.499 8.088c.745.017 1.395 1.883.916 2.624a.692.692 0 0 1-.956.209c-.742-.492-.705-2.85.04-2.833Zm21.167 17.041c-1.333-1.724-1.377-1.975-.542-3.228.465-.697.837-.375 1.655 1.464 1.258 2.794.553 3.917-1.113 1.764Zm16.847 12.807c-.021 1.481-.291 2.686-.599 2.68-.998-.023-1.14-2.329-.24-3.869.843-1.443.876-1.393.839 1.19v-.001Zm-34.284-20.626c.745-.437 1.785.8 1.773 2.107-.013 1.36-1.214 1.498-1.865.21-.797-1.57-.788-1.793.092-2.317Zm-14.492-6.584c0-.155.295-.45.648-.657s.628-.075.628.295a.653.653 0 0 1-.649.655c-.35 0-.63-.134-.625-.287l-.002-.006Zm54.257 36.823c-.016 1.419-.32 2.053-.973 2.038-1.165-.027-1.155-.52.057-2.531l.941-1.563-.025 2.056Zm-50.569-28.734c-.52-1.028-.4-1.6.582-2.754l1.236-1.464.419 1.805a2.62 2.62 0 0 1-.582 2.754c-.896.874-1.065.84-1.655-.325v-.016Zm14.658 9.97c-.477-1.33-.49-1.277.54-2.093.688-.546.973-.485 1.24.268.396 1.107-.17 2.862-.922 2.845-.274 0-.661-.466-.86-1.02h.002Zm-23.642-11.299c-.527-1.443-.628-2.822-.21-2.814.67.015 1.57 2.651 1.135 3.323-.31.506-.611.339-.914-.492l-.011-.017Zm13.35 11.11c-1.03-1.48-1.023-1.609.21-3.153.837-1.065 1.065-1.105 1.56-.28.752 1.255.726 1.721-.173 3.316-.724 1.295-.774 1.299-1.588.13l-.008-.013Zm-11.298.837c-.209-1.306-.487-2.827-.627-3.381a2.584 2.584 0 0 1 1.025-2.128c1.268-1.096 1.316-1.07 2.197 1.186.856 2.189.824 2.415-.661 4.5l-1.565 2.196-.369-2.373Zm3.515 8.996c-1.146-1.583-1.046-2.138.774-4.261 1.735-2.03 1.975-1.992 2.511.376a3.638 3.638 0 0 1-1.046 3.329c-1.318 1.63-1.45 1.661-2.236.569l-.003-.013Zm5.25 3.511c1.117-.964 1.228-.931 1.883.609q.948 2.214-1.214 2.163c-2.161-.05-2.464-1.2-.667-2.755l-.002-.017Zm-45.866-3.086c.397 1.111-.13 1.632-1.62 1.596s-1.464-1.08.084-1.864c.91-.441 1.302-.374 1.538.285l-.002-.017Zm18.397 3.308c.209.36-.06.644-.605.628-1.11-.026-1.268-.419-.376-.932a.728.728 0 0 1 .98.312l.005.009-.004-.017Zm44.246 18.681a1.39 1.39 0 0 1-.657 1.01c-.353.21-.627.093-.627-.254.053-.42.295-.792.657-1.01.357-.191.638-.076.632.271l-.005-.017Zm-31.04-17.735c-1.575-3.992-1.827-5.036-1.373-5.731.38-.582.6-.473.837.418.51 1.867.967 6.407.54 5.33l-.004-.017Zm16.947 12.068c.973-1.16.983-1.153.29.209-.397.774-.855 1.404-1.016 1.402-.479 0-.332-.327.73-1.595l-.004-.016Zm3.297 8.666c.15-.893.478-1.747.963-2.511.544-.902.93-1.161.918-.613a6.792 6.792 0 0 1-.962 2.51c-.538.919-.925 1.179-.912.63l-.007-.016Zm4.921 4.546c.701-.856 1.272-1.18 1.268-.722 0 1.201-1.255 3.258-1.981 3.241-.914-.004-.697-.778.717-2.502l-.004-.017Zm2.977 8.369a1.38 1.38 0 0 1 .657-1.01c.354-.21.628-.093.628.254a1.39 1.39 0 0 1-.657 1.011c-.347.234-.632.12-.621-.23l-.007-.025Zm-7.665 13.405c.209.569.092.82-.262.59a1.343 1.343 0 0 1-.603-.996c.026-.891.474-.682.869.433l-.004-.027Zm-3.275-5.953c0 .387-.418.14-.918-.546-1.046-1.44-1.164-2.205-.354-2.186.597.035 1.306 1.557 1.279 2.757l-.007-.025Zm6.997-1.205c.053-.42.295-.791.657-1.01.353-.21.627-.092.627.255-.053.42-.295.791-.657 1.01-.347.233-.627.118-.627-.23v-.025Z"/><path id="y" class="bc" d="M1118.769 98.623c1.335.195 2.634.584 3.856 1.153 5.46 2.37 9.04 1.492 19.807-4.866 9.532-5.628 10.438-7.396 8.03-15.677-1.958-6.742-4.35-8.556-12.88-9.78a56.94 56.94 0 0 0-11.298-.55c-3.826.437-4.49.837-8.32 5.04-6.875 7.545-7.922 11.74-4.532 18.203 2.565 4.887 3.875 6.477 5.337 6.477Z"/><path id="z" class="bc" d="M251.063 1224.427c-2.756-5.65-4.999-6.809-13.118-6.809-8.053 0-11.09 1.325-14.646 6.398a8.348 8.348 0 0 0-1.86 7.114c.525 6.038.97 6.64 5.912 8.015 2.467.687 4.846 1.392 5.283 1.567 1.72.217 3.457.252 5.183.105 11.237-.546 17.311-8.066 13.246-16.39Zm-15.644 6.188c-1.094 0-1.542-.182-.994-.401a3.077 3.077 0 0 1 1.988 0c.548.222.1.404-.99.404l-.004-.002Z"/><path id="aa" class="bc" d="M782.044 1252.669c4.635 2.542 8.503 5.739 8.579 7.103a44.988 44.988 0 0 1-3.08 10.961 42.212 42.212 0 0 0-2.816 14.466c.374 5.27.86 5.957 4.05 5.729 1.994-.14 8.46-4.41 14.366-9.487l10.739-9.23 9.892 8.996c5.44 4.948 12.001 11.417 14.58 14.376 5.533 6.347 8.255 6.567 11.408.924 2.037-3.648 2.012-5.08-.197-11.94a77.165 77.165 0 0 0-8.246-16.194l-5.732-8.4 4.695-3.383c9.097-6.555 11.486-10.832 9.833-17.613a16.76 16.76 0 0 0-3.473-7.532c-1.096-.784-7.63-1.498-14.518-1.583l-12.526-.155-4.185-10.67c-1.541-4.4-3.599-8.601-6.13-12.516-3.071-2.917-9.287 4.887-10.838 13.6l-1.305 7.345-9.817-.308c-7.779-.244-9.785.13-9.668 1.8a9.26 9.26 0 0 1-2.793 5.174c-2.13 2.22-2.708 4.563-2.092 8.484.732 4.682 2.016 6.078 9.274 10.053Z"/><g id="ab"><g id="ac"><path id="ad" class="bc" d="M1198.65 489.366c-1.746-2.64-3.14-4.74-3.976-6.085a124.653 124.653 0 0 1 9.308-14.974c6.486-9.444 12.074-17.574 7.522-21.968-4.329-4.168-18.142.136-35.754 6.178-2.164.743-4.216 1.448-6.095 2.067a163.579 163.579 0 0 0-22.697-23.962 6.444 6.444 0 0 0-6.419-1.385c-1.542.628-3.52 2.364-4.217 7.114-1.047 7.071-.053 15.216.903 23.094.387 3.194.756 6.224.982 9.113-3.17 1.582-6.685 3.113-10.397 4.73a116.72 116.72 0 0 0-21.399 11.067 5.994 5.994 0 0 0-2.442 5.04 5.913 5.913 0 0 0 2.409 4.797c8.766 5.894 20.26 7.698 30.402 9.286 1.137.178 2.26.356 3.373.533a146.952 146.952 0 0 0 5.159 35.497 7.741 7.741 0 0 0 3.793 5.004c2.75 1.348 6.04.275 8.756-2.977a158.886 158.886 0 0 0 13.656-21.55c.933-1.653 1.814-3.22 2.64-4.65 4.39.9 8.73 2.027 13.004 3.374 7.62 2.226 15.35 4.168 20.443 4.067a8.385 8.385 0 0 0 3.107-.972 5.363 5.363 0 0 0 3.444-2.965 5.965 5.965 0 0 0-.274-4.854c-4.233-8-10.836-17.964-15.232-24.62Z"/><path id="ae" class="bc" d="M1118.755 459.235a2.904 2.904 0 0 0 .908-3.347c-1.32-3.69-7.323-4.655-10.547-6.381-4.429-2.371-8.18-5.735-12.587-8.097a2.272 2.272 0 0 0-2.97 2.929c2.49 4.969 7.322 8.49 11.864 11.507 3.39 2.255 9.518 6.287 13.332 3.39Z"/><path id="af" class="bc" d="M1177.338 440.907c2.987-3.402 4.121-9.477 5.697-13.679 1.883-5.042 4.666-10.78 4.956-16.219a2.163 2.163 0 0 0-3.828-1.615c-3.438 4.23-5.409 10.158-7.57 15.115-1.969 4.51-5.25 9.74-5.283 14.733-.017 3.243 4.312 3.62 6.028 1.665Z"/><path id="ag" class="bc" d="M1137.638 412.955c-2.285-6.933-4.532-15.087-8.957-20.98a1.898 1.898 0 0 0-3.363 1.363c.086 7.38 3.369 15.374 5.731 22.291 1.494 4.356 8.02 1.649 6.588-2.674Z"/><path id="ah" class="bc" d="M1086.633 485.19c-7.277-.37-17.3-.534-23.851 3.056a1.703 1.703 0 0 0 .393 3.235c3.51.527 7.069.636 10.604.324 3.95-.033 7.879.232 11.814.563 4.685.395 5.668-6.94 1.04-7.179Z"/><path id="ai" class="bc" d="M1226.294 440.284a28.8 28.8 0 0 0 8.873-5.327 38.497 38.497 0 0 0 8.618-8.063 2.333 2.333 0 0 0-2.706-3.557 42.288 42.288 0 0 0-8.977 5.021 56.922 56.922 0 0 0-9.12 6.143 3.377 3.377 0 0 0 3.312 5.783Z"/><path id="aj" class="bc" d="M1145.362 555.76c-2.126 2.38-2.787 6.348-3.425 9.415a32.804 32.804 0 0 0-.515 11.234 2.354 2.354 0 0 0 4.645.06c.856-3.138 1.226-6.404 2.16-9.547a41.01 41.01 0 0 0 2.602-8.848 3.092 3.092 0 0 0-5.467-2.314Z"/><path id="ak" class="bc" d="M1244.291 532.57a42.815 42.815 0 0 0-9.08-5.367c-2.756-1.42-6.365-3.617-9.503-3.673a3.176 3.176 0 0 0-2.373 5.617c2.473 2.046 6.348 2.913 9.323 4.105a49.276 49.276 0 0 0 9.87 3.49 2.358 2.358 0 0 0 1.763-4.172Z"/><path id="al" class="bc" d="M1178.547 535.029c2.655 6.287 4.977 13.492 9.515 18.694a1.433 1.433 0 0 0 2.542-1.034c-.316-6.862-2.964-13.989-5.39-20.37-1.65-4.335-8.473-1.567-6.667 2.71Z"/><path id="am" class="bc" d="M1122.965 513.267c-5.084 5.727-11.254 11.507-15.414 17.92a2.009 2.009 0 0 0 2.331 3.063c7.371-3.092 13.972-10.39 18.874-16.529 2.963-3.709-2.693-7.944-5.791-4.454Z"/><path id="an" class="bc" d="M1241.872 483.93a2.473 2.473 0 0 0 .668-4.7 36.209 36.209 0 0 0-15.118-2.85 50.241 50.241 0 0 0-16.749 1.323c-3.38 1.093-2.575 6.42.837 6.788 4.593.496 9.333-.419 13.949-.586 5.452-.19 10.974.536 16.414.025Z"/></g></g><g id="ao"><g id="ap"><g id="aq"><path id="ar" class="bc" d="M302.807 1902.278a13.615 13.615 0 0 1 1.812-2.519c.573-.401 10.74 4.568 12.25 5.988 1.357 1.276 5.299 1.069 5.662-.298.478-1.81-2.046-8.613-5.751-15.504-1.928-3.601-1.017-5.735 4.818-11.163a4.587 4.587 0 0 0 1.618-2.56c-.175-1.654-5.321-2.584-10.645-1.929l-4.732.586-1.374-1.904a151.614 151.614 0 0 0-9.96-12.55c-.876-.741-1.752-.864-3.773-.525-2.188.362-2.705.722-3.083 2.134a16.04 16.04 0 0 0 1.07 7.725 22.675 22.675 0 0 1 1.378 6.575c-.175.688-4.334 1.214-7.507.953a9.204 9.204 0 0 0-3.475.286c-.7.295-1.437.489-2.191.575-1.257.103-1.643 1.03-1.166 2.804.456 1.686 2.279 3.208 9.228 7.688a59.323 59.323 0 0 1 6.475 4.541c.74 3.647.925 7.385.549 11.088-.416 1.655-.351 1.71 2.112 2.026 2.9.363 4.678-.701 6.685-4.017Z"/></g><g id="as"><path id="at" class="bc" d="M247.77 1982.365c-.382 1.432-.307 1.485 2.778 1.916 1.753.244 4.526.647 6.182.897l3.011.456 1.163 3.446 1.16 3.448 2.324-.654c1.94-.547 2.412-.992 2.87-2.71l.55-2.054 2.695 1.134c2.279.959 2.912.994 4.088.23 1.928-1.252 1.64-2.279-1.685-6.135l-2.88-3.344 1.124-4.89c1.1-4.79 1.094-4.908-.366-5.482-1.257-.497-1.904-.196-4.133 1.928-2.23 2.125-2.834 2.402-3.844 1.8-2.854-1.698-4.072-2.88-4.587-4.451-.303-.924-.81-1.599-1.13-1.503s-.625-.254-.68-.78c-.125-1.207-1.92-1.116-3.729.192s-1.812 1.558-.37 3.593a73.7 73.7 0 0 1 2.505 3.856l1.269 2.103-2.238 1.411c-3.921 2.465-5.672 4.08-6.077 5.593Z"/></g><g id="au"><path id="av" class="bc" d="M246.823 1912.11a15.424 15.424 0 0 1 4.49-1.641c4.825-1.301 5.96-2.24 4.693-3.876-.84-1.08-2.533-1.493-12.057-2.95l-3.429-.526-1.018-3.27a37.24 37.24 0 0 1-1.257-7.337c-.205-3.506-.436-4.123-1.652-4.447a4.403 4.403 0 0 0-2.885.478 2.103 2.103 0 0 0-1.303 2.528 22.895 22.895 0 0 1-.91 5.71c-1.256 4.707-1.286 4.719-7.175 3.052-3.2-.906-4.132-.938-5.434-.175-2.03 1.181-2.296 2.345-.897 3.916a38.727 38.727 0 0 0 4.206 3.588 290.233 290.233 0 0 1 4.896 3.763l1.814 1.447-1.662 6.196-1.661 6.196 1.548.069c3.204.142 3.749.035 3.964-.773a3.213 3.213 0 0 1 1.94-1.402 3.248 3.248 0 0 0 2.015-1.681c.464-1.739 2.066-.856 3.586 1.973 1.491 2.779 3.062 3.606 4.67 2.454.83-.592.97-1.1.765-2.788-.138-1.136-.335-3.4-.436-5.03-.176-2.856-.128-3.002 1.435-3.987a5.485 5.485 0 0 0 1.755-1.488Z"/></g><g id="aw"><path id="ax" class="bc" d="M334.194 2002.568c-.444-.842-.605-1.646-.351-1.79s.152-.342-.212-.438a7.749 7.749 0 0 0-3.034.997c-10.434 5.17-32.01 9.08-51.113 9.262-6.728.065-8.024-.118-16.092-2.268a55.409 55.409 0 0 1-14.257-5.267c-15.29-8.172-27.47-17.178-33.45-24.75a136.43 136.43 0 0 1-14.07-26.517 78.276 78.276 0 0 1-4.008-37.54c1.72-13.63 4.454-21.49 14.135-40.635 5.896-11.66 8.746-15.274 18.33-23.247a123.974 123.974 0 0 1 25.613-14.597c4.968-1.827 16.89-4.81 18.02-4.508.831.01 1.66-.07 2.474-.235 8.958-1.494 20.984-.647 32.076 2.257a45.442 45.442 0 0 1 14.186 5.527c3.294 1.86 6.566 3.663 7.273 4.008 5.07 2.488 14.577 9.947 16.463 12.922a2.21 2.21 0 0 0 2.572 1.286 3.17 3.17 0 0 0 3.29-3.104c.99-5.288-3.25-15.934-9.485-23.816a58.82 58.82 0 0 0-12.444-11.816 239.486 239.486 0 0 1-6.466-5.207c-7.586-6.375-15.796-10.899-30.018-16.543a76.923 76.923 0 0 0-35.406-5.84c-13.74.555-18.709 1.141-28.787 3.391-18.134 4.05-27.782 8.132-39.82 16.84a96.576 96.576 0 0 0-19.57 17.636 969.872 969.872 0 0 1-9.99 11.743 106.087 106.087 0 0 0-13.402 18.755 108.65 108.65 0 0 0-8.515 16.625 121.007 121.007 0 0 0-6.056 26.099 69.488 69.488 0 0 0-.08 10.055c.222 2.312.498 6.354.611 8.983.351 7.923.673 10.268 1.823 12.986a99.224 99.224 0 0 1 2.962 10.342c3.112 12.918 6.163 20.987 11.06 29.234 6.696 11.28 10.342 16.16 15.849 21.208 1.662 1.525 4.557 4.195 6.43 5.934 5.422 5.032 21.51 15.058 29.348 18.286 2.35.97 6.776 2.862 9.833 4.207 7.671 3.372 25.706 7.907 38.21 9.607a103.384 103.384 0 0 0 22.817 1.358c10.62-.193 19.4-1.867 25.226-4.808a21.75 21.75 0 0 1 6.037-1.879c3.945-.685 23.914-12.59 27.105-16.16a275.775 275.775 0 0 1 3.926-4.307c1.82-1.93 1.937-2.422.957-4.277Z"/></g></g></g><path id="ay" class="bc" d="m686.678 1636.63-1.994 1.596 4.951 9.581c6.405 12.394 14.652 30.73 19.189 42.661l3.59 9.439-6.1-5.124c-7.944-6.677-18.011-10.787-21.087-8.599-1.169.831-2.007 1.77-1.863 2.085.519 1.134 20.63 16.648 24.91 19.22l4.376 2.628-11.956 4.766c-13.373 5.333-20.708 7.686-31.058 9.948-7.895 1.729-9.428 2.878-5.879 4.405 5.572 2.402 17.249.816 30.631-4.155 12.463-4.63 12.617-4.678 13.267-4.103.944.837-4.867 18.48-6.607 20.057l-1.548 1.402 2.469.455a5.203 5.203 0 0 0 4.522-1.277c1.13-.954 2.54-2.082 3.131-2.511 1.235-.893 2.47-3.651 6.649-14.846 1.638-4.387 3.333-7.74 3.767-7.45.635.424 7.82 15.326 10.094 20.926.893 2.202 10.135 19.438 15.176 28.306 5.069 8.916 8.32 12.009 5.306 5.049a13.07 13.07 0 0 1-1.384-5.61c.363-1.35-11.711-33.588-15.967-42.638-.955-2.03-1.393-3.85-.972-4.045a.87.87 0 0 1 1.135.465c.205.448 1.162.722 2.127.608a68.484 68.484 0 0 1 11.295 2.193c5.25 1.32 9.755 2.084 10.013 1.697a4.665 4.665 0 0 0-.593-3.03c-.818-1.786-3.46-3.137-11.365-5.808-5.663-1.913-9.708-3.754-8.996-4.091s5.124-1.596 9.803-2.802c9.656-2.49 22.373-8.035 25.29-11.024 3.723-3.815.54-4.237-7.965-1.056a171.84 171.84 0 0 1-18.866 5.375c-6.036 1.332-12.405 2.926-14.158 3.542-2.71.954-3.387.783-4.556-1.154-.757-1.252-.97-2.46-.475-2.686 1.636-.749 7.018-20.853 6.546-24.446q-.465-3.524-2.334-1.632a52.3 52.3 0 0 0-5.471 9.126l-3.603 7.23-9.52-21.609c-13.36-30.318-18.491-37.408-23.92-33.064Z"/><path id="az" class="bc" d="M191.836 208.12c-7.742 2.54-11.99 8.13-12.014 15.784-.02 7.066 3.224 10.83 11.018 12.777 8.32 2.08 19.27-2.577 20.849-8.867.628-2.533-1.538-12.344-3.362-15.164-3.614-5.605-8.86-7.04-16.491-4.53Z"/><path id="ba" class="bc" d="M1165.313 1360.167c-4.814 1.58-7.457 5.056-7.47 9.815-.014 4.393 2.004 6.734 6.85 7.945 5.174 1.293 11.982-1.603 12.965-5.514.39-1.575-.956-7.676-2.091-9.43-2.247-3.485-5.51-4.377-10.254-2.816Z"/><path id="bb" class="bc" d="M1185.453 2002.33c-5.722 1.879-8.871 6.016-8.888 11.677-.015 5.227 2.386 8.01 8.152 9.454 6.155 1.539 14.257-1.907 15.424-6.56.47-1.876-1.137-9.126-2.49-11.219-2.67-4.14-6.552-5.207-12.198-3.352Z"/></svg>