<?xml version="1.0" encoding="UTF-8"?><svg id="a" xmlns="http://www.w3.org/2000/svg" width="1280" height="2240" viewBox="0 0 1280 2240"><defs><style>.bc {
  fill: #fcfaec;
}

</style></defs><g id="b"><g id="c"><path id="d" class="bc" d="M173.176,941.444c-1.9429,.024-3.8506,.5225-5.557,1.4519-1.3244,.6276-2.7199,1.1529-4.084,1.6884-1.4155,.4231-2.3962,1.7114-2.427,3.1885,.0023,1.8235,1.4801,3.3013,3.3036,3.3036,3.5798-.4457,7.5634-.5628,10.7499-2.3014,1.8548-1.1747,2.4061-3.6305,1.2315-5.4853-.702-1.1084-1.9058-1.7992-3.217-1.8458Z"></path><path id="e" class="bc" d="M177.4734,917.0319c1.4879-1.5445,1.4419-4.0029-.1026-5.4907-.2042-.1968-.4294-.3705-.6715-.5182-2.7848-1.5273-5.5026-.3369-8.3689,.3766s-5.739,1.2323-8.5781,2.0525c-1.3623,.4091-2.1351,1.8451-1.726,3.2074,.2489,.8288,.8972,1.4771,1.726,1.726,2.8268,.6869,5.7369,.9686,8.643,.8369,2.9312-.0461,7.0571,.2615,9.0782-2.1906Z"></path><path id="f" class="bc" d="M173.312,882.0917c1.9192,1.4959,4.0982,2.6244,6.4273,3.3287,1.3926,.3733,2.8787-.0202,3.9041-1.0336,1.2597-1.3045,1.5148-3.2807,.6277-4.8623-.998-1.7052-2.9291-2.0922-4.6385-2.7199-3.0735-1.1298-6.0926-2.5107-9.0949-3.8183-1.3071-.6971-2.9318-.2027-3.6289,1.1043-.5366,1.0061-.3785,2.2416,.3944,3.0801,1.7561,1.9205,3.7799,3.5778,6.0089,4.9209Z"></path><path id="g" class="bc" d="M197.4333,858.052c1.9474,1.094,4.4128,.4021,5.5068-1.5452,.5101-.9081,.6502-1.9779,.3912-2.9866-1.056-2.3134-2.5155-4.4204-4.31-6.2223-1.7679-2.2909-3.4229-4.6656-5.3896-6.7977-1.2126-1.163-3.1383-1.1226-4.3012,.09-.726,.757-1.0108,1.8348-.7536,2.8517,1.0275,2.6906,2.2986,5.2818,3.7974,7.7413,1.1444,2.6431,2.8743,4.9919,5.059,6.8688Z"></path><path id="h" class="bc" d="M232.3986,831.8552c1.2554,3.0902,1.9165,6.329,2.9793,9.4715,.6733,2.1358,2.9505,3.3213,5.0862,2.648,2.0271-.639,3.2168-2.7349,2.7261-4.803-1.5302-6.9285-5.0156-13.2726-10.0427-18.2798-1.791-1.6738-5.2306-.0586-4.3372,2.5253,1.0147,2.8937,2.4312,5.6095,3.5882,8.4381Z"></path><path id="i" class="bc" d="M275.8291,834.9496c1.2449-3.0839,.7888-7.3458,.772-10.6306-.0073-1.7403-.1331-3.4782-.3766-5.2013-.2874-1.1324-.8234-2.1866-1.5692-3.086-.6453-1.0479-2.0179-1.3742-3.0657-.7289-.4955,.3051-.852,.792-.9932,1.3566-.0774,.1025-.1611,.2196-.2804,.3996-.3317,.6887-.4911,1.4476-.4645,2.2115-.0858,1.3683-.2992,2.7429-.4561,4.1029-.3933,3.3475-1.8474,7.1491-1.4876,10.5009,.0695,2.2372,1.9395,3.9943,4.1766,3.9248,1.7282-.0538,3.232-1.1981,3.7446-2.8494Z"></path><path id="j" class="bc" d="M310.3572,843.7955c3.5568-1.3433,5.649-4.9167,7.8835-7.8271,1.9575-2.496,3.7195-5.1394,5.2703-7.9065,1.6215-2.9584-2.3496-6.2495-4.7577-3.6739-1.9834,2.1236-3.9962,4.2137-5.9482,6.3625-2.404,2.6425-5.7369,5.0966-6.9755,8.5216-.5241,1.9746,.6517,4.0002,2.6262,4.5243,.623,.1654,1.2785,.1651,1.9014-.0009Z"></path><path id="k" class="bc" d="M340.4497,861.8828c3.4375,.6695,5.2432-2.1676,7.1638-4.4648,1.7561-2.0922,3.5777-4.1329,5.4649-6.1219,1.2312-1.3007,1.1748-3.3533-.1259-4.5845-1.0235-.9687-2.5556-1.1656-3.7908-.487-2.434,1.4913-4.6696,3.2847-6.6533,5.3373-2.1613,2.0441-5.3917,4.4293-4.5861,7.7935,.3272,1.2354,1.2921,2.2001,2.5274,2.5274Z"></path><path id="l" class="bc" d="M359.5622,893.7013c3.607,.3724,7.8459-2.8978,10.6976-4.8393,2.5986-1.77,5.603-3.877,6.7516-6.9043,.7804-2.065-1.521-3.879-3.4082-3.4061-2.5434,.9428-4.9657,2.1846-7.2161,3.6991-3.1007,1.6738-7.0362,2.2679-9.7017,4.5151-3.017,2.5232-.2615,6.6134,2.8768,6.9356Z"></path><path id="m" class="bc" d="M389.525,916.2159c-2.109-2.1236-6.4755-1.2365-9.2058-1.2323-3.5442,0-8.0174-1.1235-10.9131,1.2281-1.5969,1.5814-1.6094,4.158-.028,5.7549,.0093,.0093,.0186,.0186,.028,.028,3.4145,2.6927,9.3669,.726,13.3903,.046,1.9148-.2082,3.7799-.7417,5.5151-1.5776,1.337-.7571,2.5505-2.9038,1.2135-4.247Z"></path><path id="n" class="bc" d="M182.1872,975.0453l-.4749-.1862c-1.5407-.4592-3.2088-.0192-4.3225,1.1402-1.173,.9701-2.5043,1.731-3.9355,2.2492-1.3788,.6988-2.8475,1.2176-4.2137,1.9332-1.4494,.8922-1.9011,2.7906-1.0088,4.24,.548,.8902,1.5099,1.4419,2.5549,1.4655,1.6178-.1093,3.2203-.3827,4.7828-.816,.9268-.2239,1.8454-.4833,2.7597-.7532,.7075-.3181,1.4457-.5628,2.2031-.7302,1.9923-.0206,3.7347-1.347,4.2849-3.2618,.0397-.1443,.0816-.2887,.1213-.433,.5309-2.0922-.6828-4.2308-2.7513-4.8477Z"></path><path id="o" class="bc" d="M203.1764,1001.2734c-2.9166,.4582-4.8414,3.6634-6.8855,5.6051-2.0092,1.8486-4.1245,3.5783-6.3353,5.1804-2.5755,1.9353-1.201,6.668,2.3454,5.5612,2.8941-.9429,5.6499-2.2664,8.1953-3.9354,2.6906-1.7135,7.0362-4.1573,7.5948-7.4965,.5319-2.1824-.806-4.3828-2.9885-4.9148-.6328-.1543-1.2934-.1543-1.9262,0Z"></path><path id="p" class="bc" d="M237.3635,1024.9951c-1.1947,5.3624-4.5401,10.0197-5.9587,15.3423-.3202,1.2896,.4657,2.5947,1.7554,2.915,.7975,.1979,1.6408-.0246,2.2366-.5905,4.1635-3.9397,6.9734-9.4569,9.9151-14.3129,3.358-5.5549-6.5801-9.48-7.9484-3.3539Z"></path><path id="q" class="bc" d="M278.3126,1029.0226c-2.6198,.048-4.7317,2.1608-4.7786,4.7807,.0562,2.1457,.3631,4.2776,.9143,6.352,.1466,2.9897,1.0415,5.8946,2.6027,8.4485,1.2826,1.6278,3.5568,.7322,4.5736-.59,1.6487-2.1571,1.4646-5.8038,1.5022-8.3814,.1191-2.3688,.0492-4.7433-.2092-7.101-.5604-2.0795-2.4514-3.5203-4.605-3.5088Z"></path><path id="r" class="bc" d="M317.3347,1022.633c-.9976-2.4108-3.7607-3.5566-6.1716-2.559-2.4109,.9976-3.5566,3.7608-2.559,6.1716,.3108,.7511,.8101,1.4093,1.4496,1.9109,4.1845,3.176,7.4316,8.0572,13.361,7.6744,2.7053-.1737,2.8789-3.4396,1.3579-4.9795-2.4898-2.5213-6.0361-4.8102-7.4379-8.2184Z"></path><path id="s" class="bc" d="M356.7273,1000.2524c-1.4493-1.7619-2.7022-3.6763-3.7367-5.7097-1.3556-2.3169-4.3327-3.0961-6.6494-1.7404-.7198,.4212-1.3192,1.0206-1.7404,1.7404-1.0715,1.9155-.7631,4.3067,.7595,5.8876,1.6994,2.0238,3.5774,3.8906,5.6114,5.5779,1.9776,1.9588,4.3711,3.447,7.0027,4.3539,1.5945,.4016,3.2127-.5655,3.6142-2.1599,.1847-.7334,.0834-1.5097-.2834-2.171-1.29-2.1019-2.8269-4.0419-4.5778-5.7788Z"></path><path id="t" class="bc" d="M377.8252,958.0583c-3.7284-1.3997-8.6116-4.153-12.3588-1.8454-1.9076,1.1587-2.5551,3.62-1.4646,5.5674,1.883,3.6991,6.668,3.6362,10.3084,4.3539s7.7915,2.3014,11.5261,1.8349c1.4933-.0497,2.6636-1.3004,2.6139-2.7936-.0218-.6564-.2816-1.2824-.731-1.7612-2.3077-2.9605-6.5005-4.084-9.8941-5.3561Z"></path><path id="u" class="bc" d="M339.4768,899.0158c-6.4029-14.9341-17.7628-27.2014-32.1617-34.731-13.7899-7.0194-27.8811-7.9359-41.9345-5.5151-33.1325-2.6864-58.1744,29.5987-64.6143,59.4067-6.9044,31.9944,4.7054,68.2066,36.614,81.1241,30.5989,12.3881,73.3305,4.5151,94.1064-21.8576,17.196-21.8346,19.1083-53.4397,7.9902-78.4272Zm-29.2326,85.1286c-30.8709,20.4661-84.1871,14.2585-98.9101-22.6902-13.1455-32.9903,1.7951-75.2366,33.528-90.8592,.6209,.2191,1.2893,.2675,1.9353,.1402,19.9578-3.609,38.4196-7.2496,57.2769,2.5399,13.0995,6.7997,22.6505,18.9807,27.9605,32.5635,10.7897,27.5775,3.6029,61.4821-21.7801,78.3057h-.0105Z"></path><path id="v" class="bc" d="M264.7905,885.3241c-23.8891-.4185-41.7567,33.1179-40.7064,54.1302,1.4164,28.2451,29.3038,39.9113,53.9084,36.3065,23.0898-3.3831,49.0837-24.0836,45.1524-49.8139-3.5317-23.1129-34.095-50.0295-58.3544-40.6228Zm12.9153,80.5843c-18.4116,4.2703-37.5806-3.1111-43.3091-21.9893-3.8727-12.748,2.1403-27.3183,10.0657-37.1329,3.7863-4.7286,8.816-8.3079,14.5243-10.3356,.5711,.0817,1.1529,.0453,1.7094-.1068,22.7907-5.942,46.8659,5.2034,52.6217,29.5402,4.9606,21.0164-18.5435,36.0659-35.6119,40.0264v-.002Z"></path><path id="w" class="bc" d="M273.1678,912.295c-5.808-.749-13.8087,2.3475-15.1854,8.6389-.0254,.1633-.0381,.3284-.0377,.4938-1.9961,2.7268-3.0354,6.0366-2.9563,9.415,.0439,11.3755,10.4821,18.0141,20.9641,16.2023,12.8986-2.2303,18.4116-15.3633,11.047-26.0022-3.1719-4.7347-8.1944-7.9112-13.8317-8.7478Z"></path></g></g><path id="x" class="bc" d="M634.5673,636.7662c1.8516-2.8057,4.038-6.4629,4.8602-8.1262,.6058-1.3139,1.3456-2.5619,2.2073-3.7242,1.7008-2.8309,3.2377-5.7572,4.6029-8.7643,1.3061-2.9509,2.8409-5.7953,4.5903-8.507,1.5914-.275,3.2174-.2849,4.8121-.0293,14.746,1.4834,43.3301,3.7932,46.6567,3.766,6.9629-.0523,6.7621-1.4646-1.36-9.5908-13.6936-13.6978-25.5252-25.1068-27.4585-26.5106-6.3018-4.5339-6.2076-4.4083-5.2306-7.0152,.5658-1.4617,1.214-2.8902,1.9415-4.2786,.5412-.9678,.9761-1.9913,1.2972-3.0526,.3763-1.2488,.847-2.4672,1.408-3.6447,4.3581-9.4506,9.9862-22.1483,11.4319-25.7909,.9415-2.3768,2.494-6.2976,3.448-8.7141s3.1885-7.3228,4.9648-10.9047c1.2627-2.3656,2.3481-4.8216,3.2471-7.3479,.0252-1.1089-1.9186-2.1404-3.1383-1.6738-4.9301,2.4629-9.5678,5.4723-13.8254,8.9715-1.9869,1.6647-4.0838,3.1934-6.2767,4.5757-6.8521,3.7168-13.4996,7.7991-19.9138,12.2291-6.9043,5.1636-16.7608,12.2877-17.0036,12.2814-.709-.4517-1.364-.9831-1.952-1.5838-.9353-.8683-2.3977-2.1948-3.2534-2.9501-1.544-1.3641-17.7421-17.6103-30.2829-30.3687-5.6805-5.7787-6.9881-6.7935-9.6431-7.4734-2.8621-.7344-3.1509-.6946-4.2473,.5963-1.3474,1.5901-1.2031,4.3121,.4833,8.9966,.7248,2.1889,1.2946,4.4262,1.7052,6.6951,.3683,2.0922,1.95,9.12,3.5171,15.6018,1.5671,6.4817,3.6279,15.7942,4.584,20.6942,1.5859,8.1325,1.6445,8.961,.6842,9.5176-1.4269,.8369-7.3228,4.8854-17.3655,11.9634-4.6029,3.2451-10.5427,7.373-13.1957,9.1744s-6.4859,4.6887-8.4987,6.421h0c-1.4988,1.0988-2.7558,2.4939-3.6928,4.0987-.0356,1.8328,.8934,3.4082,2.0922,3.5568,.6695,.09,3.766,.7009,6.8918,1.3599,3.1291,.6608,6.2896,1.1629,9.4694,1.5043,7.4336,.5984,25.3431,2.8391,29.2348,3.6572l3.9564,.8369,.8097,3.2262c1.2553,4.9753,4.2953,22.1588,5.649,31.8437,.3794,2.1555,.9002,4.2837,1.5587,6.3708,.7528,2.5805,1.2599,5.2264,1.5148,7.9023,.2887,3.7911,.4561,4.1573,2.4061,5.3038,2.4772,1.4646,4.0442,1.1549,5.0736-.975,.4185-.8557,1.0608-1.5483,1.4374-1.5399s.546-.2092,.3788-.5021c-.4058-.7553,5.5026-12.1328,9.4235-18.0769Zm34.5218-106.8522c.5063-.6591,1.0796-1.0336,1.2742-.8369s-.0607,.9101-.567,1.5692-1.0796,1.0336-1.272,.8369,.0564-.9101,.5543-1.5692h.0105Zm-8.5259,.8766c.0526-.4197,.2947-.7921,.657-1.0106,.3536-.2092,.6276-.0921,.6276,.2573-.0539,.4193-.2956,.7912-.657,1.0106-.3639,.205-.6464,.09-.6381-.2511l.0105-.0063Zm3.4627,4.8791c.6883-.6611,1.4646,.2092,1.0586,1.1842-.2092,.5042-.6276,.7532-.9353,.5544-.5054-.2798-.6884-.9164-.4085-1.4219,.0684-.1236,.1612-.2321,.2726-.3188l.0125,.0021Zm-8.1346-.1841c-.705-1.1696-.5587-1.7219,.4499-1.6989,1.3097,.0293,1.906,1.3558,.8829,1.9583-.4017,.3078-.9769,.2317-1.2848-.17-.022-.0286-.0421-.0585-.0605-.0895h.0125Zm14.4364,11.568c-.0125,.544-.3075,.9813-.6548,.9729-.3402,.0001-.6186-.2708-.6276-.6109,.0605-.407,.3021-.7647,.657-.9729,.343-.2051,.6296,.069,.617,.6109h.0084Zm-10.6348-5.9817c.0125-.521,.3034-.7678,.6465-.544,.3957,.3374,.6173,.8359,.6026,1.3558-.0125,.521-.3034,.7678-.6465,.544-.398-.3355-.6228-.8332-.611-1.3537l.0084-.0021Zm-7.9504-1.5148c-1.0169-1.406-1.0461-1.9018-.1485-2.4291,1.0691-.6277,1.8349,.5649,1.383,2.1508-.383,1.3328-.4605,1.3516-1.2346,.2783h.0001Zm14.5996,12.1956c.7721,.0188,1.3892,1.8956,.8787,2.6801-.2573,.3975-.6067,.3097-.9353-.2364h0c-.6863-1.1424-.655-2.4584,.0564-2.4437h.0001Zm-18.7192-7.306c-1.36-1.6152-1.6215-2.9898-.6737-3.5463,.3159-.1862,.7302,.3515,.9206,1.1926s.5021,2.0567,.6925,2.7032c.272,.9248,.0711,.8557-.9395-.3494h.0001Zm3.2492,4.4732c.8751,1.3605,1.5212,2.8554,1.9123,4.4251-.5455-.5358-.9687-1.1831-1.2407-1.8976-.841-1.7261-1.2282-3.1802-.6716-2.5274Zm-49.0168-27.9187c.0272-1.1549,1.1716-2.0922,1.7805-1.4478,.2092,.2218-.1068,.8746-.7092,1.4499-1.0106,.9645-1.088,.9645-1.0713-.0021Zm29.3414,74.9353c.073,.6139-.3653,1.1707-.9792,1.2438-.1051,.0125-.2115,.0101-.3159-.0073-1.4352-.0335-1.6089-.6946-.4666-1.7847s1.7932-.8871,1.7597,.5482h.002Zm-3.9501-5.2829l-.9457,1.6863-.9415-2.3768c-1.1654-2.9438-1.1612-3.335,.0669-4.3079,1.1089-.8787,1.0586-.9164,2.042,1.519,.605,1.1053,.5179,2.4606-.2237,3.4794h.002Zm10.7142-2.3014c.9039,2.132,.9436,2.7806,.2428,4.0192q-.8369,1.4646-1.8831-1.0775h0c-1.3161-3.1781-1.3076-3.0379-.2825-4.3749,.768-1.0127,.9374-.8871,1.9209,1.4332h.0019Zm34.9862,7.532c-.5146-1.4081-.6276-3.4522-.1946-3.4417,.7177,.0167,1.5043,2.5818,1.0943,3.5756s-.4873,1.0084-.9016-.1297l.0019-.0042Zm20.1168,9.733c0,.2092-.8599,.226-1.9018,.0502-1.8831-.3222-2.4166-1.0461-1.2553-1.7324,.6215-.362,3.1699,1.0001,3.1532,1.6863l.004-.0042Zm-18.3761-17.6145c1.7261,1.6612,2.3014,3.3706,.6423,1.9353h0c-.6575-.6295-1.2056-1.3641-1.6215-2.1738-.5856-1.1863-.4789-1.1612,.9773,.2427l.0019-.0042Zm-17.738-10.1745l-1.3223,2.4563,.0816-3.1383c.0879-3.4187,.8369-5.1197,1.9207-4.4104,1.0254,.6695,.8036,2.3391-.6818,5.0967l.0018-.0042Zm-5.8332-8.6514l-.4896,1.4311-1.1402-1.5566h0c-1.3306-1.816-1.406-2.2826-.4457-2.8454,1.1803-.6904,2.624,1.3725,2.0737,2.9752l.0018-.0042Zm-17.6145-17.5747c-.4116,.303-.9418,.3944-1.4311,.2469-.6276-.4184-.6172-2.155,.0188-2.1278,.5099,.125,.9895,.3512,1.4102,.6653,.8122,.5586,.8122,.7051,.0004,1.2114l.0018,.0042Zm-12.3944-13.5053c0,.3682-.295,.4875-.6381,.2657s-.6276-.5314-.6276-.6863,.2908-.272,.6403-.2657c.3593,.0169,.6379,.3205,.6237,.68l.0018,.0063Zm-9.9443-8.5007c.0158-.3625,.3224-.6435,.685-.6277,.0004,0,.0009,0,.0013,0,.3683,0,.4874,.2971,.2657,.6402s-.5315,.6277-.6863,.6277-.2738-.2971-.2675-.6444l.0018,.0042Zm4.0045,4.1719c.5273-.6632,.9603-.9059,.9625-.5377-.1572,.697-.485,1.344-.954,1.883-.5273,.6632-.9603,.9059-.9625,.5377,.1554-.6985,.4827-1.3472,.9523-1.8872l.0018,.0042Zm-11.6328-2.1278c.0955-.5652,.3172-1.1015,.6486-1.5692,.3516-.5147,.6276-.6528,.6276-.3034-.096,.5654-.3185,1.1017-.6506,1.5692-.3554,.5063-.6357,.6465-.6274,.2971l.0018,.0063Zm19.9725,12.4153c.0125-.521,.3034-.7658,.6465-.544,.396,.3372,.6177,.8359,.6026,1.3558-.0105,.5231-.3012,.7678-.6465,.544-.3978-.338-.6209-.8381-.6064-1.3599l.0038,.0042Zm-6.0089-2.2136c.1841,.1946-.0921,.8934-.6151,1.5524s-.9498,.9143-.9478,.567c.0045-.9457,1.1761-2.5295,1.5611-2.1236l.0018,.0042Zm-15.9655-5.8143c.0948-.5654,.3166-1.1019,.6486-1.5692,.3494-.5147,.6276-.6528,.6276-.3034-.0965,.5652-.3189,1.1015-.6506,1.5692-.3556,.5126-.6339,.6486-.6256,.3034Zm34.4088,23.6003c-.5795-1.3516-.4561-1.837,.8369-3.2743,1.4834-1.6487,1.5295-1.657,1.9123-.3431,.1743,1.1597-.1276,2.3405-.8369,3.2743l-1.2345,1.929-.6778-1.5859Zm4.1593,7.6471c.1981-.665,.5362-1.28,.9917-1.8035,.5273-.6653,.9415-.9415,.9248-.613-.1979,.6651-.5361,1.2801-.9917,1.8035-.5251,.6653-.9414,.9415-.9226,.613h-.0022Zm-28.8853-15.7106c1.0461-1.5022,1.2742-1.5985,1.6089-.6653,.4435,1.2407,.5188,1.1319-1.4039,2.0755-1.7385,.8578-1.7448,.8118-.205-1.4102Zm12.499,8.0886c.7449,.0167,1.3955,1.883,.9164,2.6237-.2064,.3216-.6343,.4152-.9561,.2092-.7427-.4916-.705-2.8496,.0397-2.8329Zm21.1671,17.0412c-1.3328-1.724-1.3767-1.9751-.5418-3.2283,.4644-.6967,.8369-.3745,1.655,1.4646,1.2573,2.7931,.5523,3.9167-1.1132,1.7638Zm16.8466,12.8065c-.0209,1.4813-.2908,2.6864-.5984,2.6802-.998-.023-1.1402-2.3287-.2406-3.8685,.8432-1.4436,.8767-1.3934,.839,1.1905v-.0021Zm-34.2832-20.6252c.7449-.4373,1.7847,.7992,1.7721,2.1069-.0125,1.36-1.2135,1.498-1.8642,.2092-.7971-1.5692-.7888-1.793,.0921-2.3161Zm-14.4929-6.5843c0-.1548,.295-.4498,.6486-.657s.6276-.0753,.6276,.295c.0011,.3597-.2889,.6526-.6486,.6549-.3494,0-.6297-.1339-.6256-.2866l-.002-.0063Zm54.2577,36.8232c-.0167,1.4185-.3201,2.0525-.9729,2.0378-1.1654-.0272-1.1549-.521,.0564-2.5316l.9415-1.5629-.025,2.0567Zm-50.5691-28.7347c-.521-1.0273-.3996-1.6006,.5817-2.7534l1.2365-1.4646,.4185,1.8056c.3574,.9529,.1306,2.0265-.5817,2.7534-.8956,.8746-1.065,.8411-1.655-.3243v-.0167Zm14.6581,9.9695c-.4771-1.3286-.4896-1.2763,.5398-2.0922,.6883-.5461,.9729-.4854,1.2407,.2678,.3955,1.1068-.1715,2.8622-.9226,2.8454-.274,0-.6611-.4666-.8599-1.021h.002Zm-23.6422-11.298c-.5273-1.4436-.6276-2.8224-.2092-2.8141,.6695,.0147,1.5692,2.6509,1.134,3.3225-.3097,.5063-.6109,.339-.9143-.4917l-.0105-.0167Zm13.3505,11.1097c-1.0314-1.4792-1.0231-1.6089,.2092-3.153,.8369-1.065,1.0649-1.1047,1.5607-.2804,.7511,1.2553,.726,1.7219-.1737,3.3162-.7237,1.2951-.774,1.2993-1.5878,.1297l-.0084-.0126Zm-11.2981,.8369c-.2092-1.3056-.4874-2.8266-.6276-3.381-.0215-.8331,.3604-1.6253,1.0252-2.1278,1.2679-1.0963,1.3161-1.0691,2.1968,1.1863,.8557,2.1885,.8243,2.4144-.6611,4.5004l-1.565,2.1948-.3683-2.3726Zm3.5149,8.9966c-1.1465-1.5838-1.0461-2.1383,.7741-4.2619,1.7344-2.0295,1.975-1.9918,2.5107,.3766,.2408,1.2153-.1534,2.4696-1.0461,3.3287-1.318,1.6299-1.4498,1.6613-2.2365,.5691l-.0022-.0126Zm5.2493,3.5107c1.1172-.9645,1.2281-.9311,1.8831,.6088q.9478,2.2136-1.2135,2.1634c-2.1613-.0502-2.4645-1.2009-.6672-2.7554l-.0023-.0168Zm-45.8658-3.0861c.3975,1.111-.1297,1.6319-1.6194,1.5964s-1.4646-1.0796,.0836-1.8642c.9104-.4414,1.3015-.3744,1.538,.2846l-.0023-.0168Zm18.397,3.3078c.2092,.3599-.0607,.6444-.6047,.6277h0c-1.111-.0251-1.2679-.4184-.3766-.9311,.357-.1849,.7965-.0453,.9814,.3118,.0014,.0027,.0028,.0056,.0042,.0083l-.0043-.0168Zm44.2465,18.6815c-.0539,.4193-.2956,.7912-.657,1.0106-.3536,.2092-.6276,.0921-.6276-.2552,.053-.4196,.295-.7919,.657-1.0106,.3578-.1903,.6382-.0753,.6319,.272l-.0042-.0168Zm-31.0403-17.7358h0c-1.5754-3.992-1.8265-5.036-1.3725-5.7306,.3788-.5816,.6004-.4728,.8369,.4184,.5105,1.8663,.9667,6.4065,.5398,5.329l-.0042-.0168Zm16.947,12.068c.9729-1.1591,.9833-1.1528,.2908,.2092-.3975,.7741-.8557,1.4039-1.0169,1.4018-.4789,0-.3324-.3263,.7304-1.5942l-.0043-.0168Zm3.2973,8.666c.1504-.8926,.4777-1.7462,.9625-2.5107,.544-.9018,.9311-1.1612,.9185-.613-.1503,.8927-.4776,1.7463-.9625,2.5107-.5376,.9185-.9247,1.178-.9122,.6298l-.0064-.0168Zm4.9209,4.5464c.7009-.8557,1.272-1.18,1.2679-.7218,0,1.201-1.2553,3.2576-1.9814,3.2409-.9141-.0041-.6965-.7782,.7178-2.5022l-.0043-.0168Zm2.9772,8.3689c.0526-.4197,.2947-.7921,.657-1.0106,.3536-.2092,.6276-.0921,.6276,.2552-.0539,.4193-.2956,.7912-.657,1.0106-.3471,.2344-.6316,.1193-.6211-.2301l-.0065-.0252Zm-7.6659,13.4049c.2092,.5691,.0921,.8202-.2615,.59-.3417-.2232-.5635-.5896-.6026-.9959,.0254-.8912,.4731-.682,.8686,.4332l-.0045-.0273Zm-3.2743-5.9524c0,.3871-.4185,.1402-.9185-.5461h0c-1.0461-1.4395-1.1633-2.2052-.3536-2.1864,.5966,.0356,1.3059,1.5567,1.2787,2.7576l-.0065-.0252Zm6.9964-1.2051c.0533-.4195,.2952-.7916,.657-1.0106,.3536-.2092,.6276-.0921,.6276,.2552-.0535,.4194-.2955,.7914-.657,1.0106-.3471,.2323-.6274,.1172-.6274-.2301l-.0003-.0252Z"></path><path id="y" class="bc" d="M1118.769,98.6233c1.3345,.1949,2.6335,.5833,3.856,1.1528,5.4607,2.3705,9.0406,1.4918,19.8072-4.8665,9.5322-5.6281,10.4382-7.396,8.03-15.6771-1.9583-6.7412-4.3498-8.5551-12.8798-9.7791-3.7384-.558-7.5231-.7423-11.298-.5503-3.8267,.4373-4.4899,.8369-8.3208,5.0402-6.8751,7.5446-7.9212,11.7395-4.5317,18.2024,2.565,4.8874,3.8747,6.4776,5.3372,6.4776Z"></path><path id="z" class="bc" d="M251.0628,1224.4266c-2.7554-5.6489-4.9984-6.8082-13.1183-6.8082-8.053,0-11.0888,1.3245-14.6456,6.398-1.6871,1.9558-2.3739,4.5824-1.86,7.1136,.5252,6.0381,.9708,6.6406,5.9126,8.0154,2.4667,.6863,4.8456,1.3914,5.2829,1.5671,1.719,.2168,3.4561,.2518,5.1824,.1047,11.2374-.5463,17.3112-8.0658,13.246-16.3907Zm-15.6436,6.1888c-1.0943,0-1.542-.1821-.9938-.4017,.6443-.2199,1.3433-.2199,1.9876,0,.5482,.2219,.1004,.4038-.9896,.4038l-.0042-.002Z"></path><path id="aa" class="bc" d="M782.0444,1252.669c4.6343,2.5421,8.5028,5.739,8.5782,7.1031-.5582,3.7694-1.5931,7.4527-3.0797,10.9612-1.7797,4.6195-2.733,9.516-2.8162,14.4657,.3745,5.2704,.8599,5.9565,4.0506,5.7285,1.9939-.1402,8.4589-4.4104,14.3652-9.4862l10.7394-9.2309,9.8921,8.9966c5.4398,4.9481,12.001,11.4173,14.5807,14.3757h0c5.5319,6.3478,8.2539,6.5675,11.4068,.9247,2.0378-3.6488,2.0127-5.08-.1967-11.9404-2.1011-5.7039-4.8688-11.1395-8.2455-16.1938l-5.7327-8.4003,4.6949-3.3831c9.097-6.5549,11.4863-10.8315,9.8335-17.6124-.5084-2.762-1.7027-5.352-3.4731-7.532-1.0963-.7846-7.6304-1.498-14.518-1.5838l-12.5262-.1548-4.1845-10.6704c-1.5414-4.3996-3.5991-8.6008-6.1302-12.5157-3.0714-2.9166-9.2874,4.8874-10.8377,13.5995l-1.3055,7.3458-9.8167-.3076c-7.7789-.2448-9.7854,.1297-9.6682,1.7993-.3442,1.9823-1.3247,3.7986-2.7931,5.1741-2.1299,2.2199-2.7074,4.5632-2.0922,8.484,.7322,4.6826,2.0168,6.0781,9.2748,10.0533Z"></path><g id="ab"><g id="ac"><path id="ad" class="bc" d="M1198.6491,489.3656c-1.7449-2.6404-3.1383-4.7389-3.9752-6.0842,2.7454-5.2048,5.856-10.2087,9.3083-14.9741,6.4859-9.4443,12.0742-17.5747,7.5216-21.9684-4.3288-4.1677-18.1417,.136-35.7541,6.1784-2.1634,.7427-4.2158,1.4478-6.0947,2.0671-6.7383-8.7322-14.3425-16.7605-22.6965-23.9623-1.7263-1.599-4.1869-2.1299-6.419-1.3851-1.542,.6277-3.5212,2.3642-4.2179,7.1136-1.0461,7.0717-.0523,15.2168,.9038,23.094,.3871,3.1948,.7553,6.2244,.9813,9.1137-3.1697,1.5817-6.6847,3.1132-10.3963,4.7305-7.4957,2.9406-14.667,6.649-21.3993,11.0658-1.5969,1.1732-2.5109,3.0598-2.4416,5.0402-.0113,1.8924,.8839,3.6758,2.4082,4.7975,8.7664,5.8938,20.2611,7.6973,30.4022,9.2853,1.1368,.1785,2.261,.3564,3.3727,.5335,.2638,11.9986,1.9966,23.9196,5.1594,35.4968,.5006,2.1292,1.8786,3.9472,3.7932,5.0046,2.7492,1.3474,6.0403,.2741,8.756-2.9772,5.1223-6.8057,9.689-14.0122,13.656-21.55,.9331-1.6529,1.814-3.2199,2.6404-4.651,4.3894,.9014,8.7295,2.0279,13.0032,3.3748,7.6199,2.2261,15.3507,4.1677,20.4432,4.0673,1.0893-.1182,2.1448-.4487,3.107-.9729h0c1.5306-.429,2.792-1.5149,3.4438-2.9647,.6021-1.5835,.5024-3.3483-.2741-4.854-4.2325-8.0007-10.8356-17.9639-15.2314-24.6193Z"></path><path id="ae" class="bc" d="M1118.7552,459.2354c1.009-.7927,1.3781-2.1536,.908-3.3476-1.3202-3.6907-7.3228-4.6552-10.5469-6.3813-4.4292-2.3705-8.1806-5.7348-12.5868-8.0969-1.1631-.4712-2.4879,.0897-2.9591,1.2527-.2175,.5369-.2218,1.1365-.0119,1.6764,2.4898,4.969,7.3228,8.4903,11.865,11.5073,3.3894,2.2554,9.5176,6.2871,13.3317,3.3894Z"></path><path id="af" class="bc" d="M1177.3376,440.9074c2.9877-3.402,4.1217-9.4778,5.6972-13.679,1.883-5.0423,4.6657-10.7813,4.9565-16.219,.1394-1.1866-.7095-2.2616-1.8961-2.401-.7363-.0865-1.4656,.21-1.9326,.7858-3.4375,4.2305-5.4084,10.1578-7.5697,15.1143-1.9688,4.5108-5.2494,9.7414-5.2829,14.7335-.0168,3.243,4.3121,3.6196,6.0277,1.6654Z"></path><path id="ag" class="bc" d="M1137.6375,412.9553c-2.2847-6.9336-4.5318-15.0871-8.9568-20.9809-.6615-.8129-1.8568-.9356-2.6697-.2741-.4883,.3974-.7478,1.0111-.6926,1.6382,.0858,7.3793,3.3685,15.3737,5.7306,22.2906,1.4939,4.356,8.0195,1.6487,6.5884-2.6739Z"></path><path id="ah" class="bc" d="M1086.6332,485.1895c-7.2768-.3703-17.3006-.5335-23.8514,3.0567-.8601,.3806-1.2488,1.3864-.8682,2.2466,.2297,.5189,.7027,.8894,1.2616,.988,3.5092,.527,7.0686,.6359,10.6034,.3243,3.9501-.0335,7.8793,.2322,11.8148,.5628,4.6845,.3955,5.6679-6.9399,1.0398-7.1784Z"></path><path id="ai" class="bc" d="M1226.2937,440.2839c3.2551-1.2252,6.2613-3.03,8.8731-5.3268,3.27-2.2289,6.1768-4.9487,8.6179-8.0635,.7579-1.0419,.5278-2.5009-.5141-3.2588-.6339-.4612-1.4571-.5731-2.1912-.298-3.1858,1.3022-6.2006,2.9885-8.9778,5.0214-3.2311,1.7485-6.2854,3.8057-9.12,6.1428-1.4465,1.1772-1.6648,3.3041-.4876,4.7506,.9141,1.1232,2.4427,1.5385,3.7996,1.0323Z"></path><path id="aj" class="bc" d="M1145.362,555.7603c-2.1257,2.3789-2.7869,6.3478-3.425,9.415-.8168,3.6868-.991,7.4871-.5147,11.2332,.1942,1.2854,1.3935,2.17,2.6789,1.9758,.9982-.1507,1.789-.9212,1.9658-1.9151,.8557-3.1383,1.226-6.4043,2.1592-9.5468,1.1975-2.8421,2.0706-5.8102,2.6027-8.848,.198-1.6963-1.0166-3.232-2.7129-3.43-1.0483-.1224-2.0866,.2984-2.754,1.116Z"></path><path id="ak" class="bc" d="M1244.291,532.5701c-2.794-2.1563-5.8439-3.9588-9.0803-5.3666-2.7555-1.4206-6.3646-3.6175-9.5029-3.6739-1.7423-.2029-3.3192,1.045-3.522,2.7873-.1255,1.0778,.3079,2.1452,1.1495,2.8303,2.473,2.0462,6.3478,2.9124,9.323,4.1049,3.1564,1.5104,6.4648,2.6803,9.8691,3.4899,1.2932,.1531,2.4657-.7712,2.6188-2.0644,.095-.8026-.2277-1.598-.855-2.1075Z"></path><path id="al" class="bc" d="M1178.5469,535.0285c2.655,6.2872,4.9774,13.4928,9.5155,18.6941,.4972,.6158,1.3996,.712,2.0154,.2148,.3736-.3016,.5713-.7703,.5266-1.2483-.3159-6.8625-2.9647-13.9887-5.3896-20.37-1.6507-4.3351-8.4735-1.5671-6.6679,2.7095Z"></path><path id="am" class="bc" d="M1122.9648,513.2672c-5.0841,5.7264-11.2541,11.5073-15.4134,17.9199-.6535,.8963-.4567,2.1527,.4396,2.8063,.5469,.3987,1.2577,.4952,1.8911,.2567,7.3709-3.0923,13.9719-10.39,18.874-16.5286,2.9626-3.7095-2.6927-7.9442-5.7913-4.4544Z"></path><path id="an" class="bc" d="M1241.8724,483.9299c1.3517-.1961,2.2884-1.4508,2.0924-2.8024-.1209-.8337-.6579-1.5484-1.4249-1.8967-4.777-2.0226-9.9329-2.9951-15.1184-2.8517-5.6175-.5017-11.2794-.054-16.7483,1.3244-3.381,1.0922-2.5755,6.419,.8369,6.7872,4.5925,.4959,9.3334-.4184,13.9489-.5858,5.4524-.1904,10.9738,.5356,16.4136,.0251Z"></path></g></g><g id="ao"><g id="ap"><g id="aq"><path id="ar" class="bc" d="M302.8067,1902.2778c.5062-.9059,1.1142-1.7509,1.8124-2.5187,.5732-.4014,10.7392,4.5677,12.2501,5.9875,1.3566,1.2761,5.2986,1.0692,5.6614-.2979,.4785-1.8088-2.0455-8.6131-5.7508-15.5032-1.928-3.6019-1.0166-5.735,4.8184-11.1634,.8137-.6458,1.384-1.5486,1.6178-2.5608-.1752-1.6528-5.3214-2.5836-10.6446-1.928l-4.7325,.5854-1.3742-1.9035c-3.0962-4.3558-6.4206-8.545-9.9592-12.5498-.8764-.7414-1.7528-.8641-3.7737-.5258-2.1874,.3628-2.7046,.7221-3.0831,2.1349-.2839,2.6237,.084,5.2769,1.071,7.7244,.7831,2.1109,1.2474,4.3268,1.3777,6.5746-.1752,.6888-4.3346,1.2147-7.5071,.9535-1.1662-.1271-2.346-.0302-3.4757,.2857-.6991,.2954-1.437,.489-2.191,.5749-1.2567,.1035-1.6424,1.0306-1.1656,2.8044h0c.4557,1.6861,2.2786,3.2076,9.2283,7.6876,2.2569,1.3681,4.4199,2.8853,6.4747,4.5414,.7397,3.6474,.9246,7.3854,.5486,11.088-.4154,1.6546-.3506,1.7107,2.1121,2.0262,2.9008,.3628,4.678-.7013,6.685-4.0174Z"></path></g><g id="as"><path id="at" class="bc" d="M247.7699,1982.3652c-.3821,1.432-.3067,1.4846,2.7782,1.9158,1.7528,.2436,4.5256,.6468,6.182,.8975l3.0113,.4557,1.1621,3.4459,1.1603,3.4477,2.3241-.6538c1.9403-.5469,2.4118-.992,2.871-2.7098l.5486-2.0542,2.6958,1.134c2.2786,.9588,2.9114,.9938,4.0874,.2296,1.928-1.2515,1.6405-2.2786-1.6844-6.1347l-2.8798-3.3443,1.1235-4.8902c1.1007-4.7885,1.0938-4.9077-.3663-5.4809-1.2567-.4978-1.9035-.1963-4.133,1.928-2.2295,2.1243-2.8342,2.4013-3.8438,1.8001-2.8535-1.6984-4.0717-2.8798-4.587-4.452-.3032-.9237-.8097-1.5985-1.1306-1.5021s-.624-.2542-.6801-.78c-.1244-1.2077-1.9192-1.1166-3.7282,.1911s-1.8124,1.5582-.3698,3.5932h0c.6801,.9588,1.8054,2.6923,2.5047,3.8561l1.269,2.1033-2.2382,1.411c-3.921,2.4645-5.6721,4.0806-6.0769,5.5931Z"></path></g><g id="au"><path id="av" class="bc" d="M246.8233,1912.1091c1.4025-.7769,2.9176-1.3304,4.4906-1.6405,4.8236-1.3006,5.9595-2.2401,4.6922-3.8754-.8396-1.0798-2.5328-1.4933-12.0573-2.9499l-3.4284-.5258-1.0183-3.2707c-.6629-2.3976-1.0839-4.8556-1.2567-7.3371-.2051-3.5055-.4365-4.1225-1.6528-4.4467-.9881-.1738-2.006-.005-2.885,.4785-1.024,.3771-1.5896,1.4747-1.3023,2.5275-.0607,1.9343-.3663,3.8531-.9097,5.7105-1.2567,4.7062-1.2865,4.7185-7.1758,3.0516-3.2005-.9062-4.1313-.9377-5.4335-.1752-2.0297,1.1814-2.2961,2.3452-.8975,3.9157,1.315,1.2947,2.7208,2.4937,4.2067,3.5879,1.6949,1.2742,3.8964,2.9691,4.8955,3.7631l1.8141,1.4478-1.6616,6.196-1.6616,6.196,1.5477,.0684c3.2041,.142,3.7491,.0351,3.9648-.7729,.4419-.6999,1.1371-1.2022,1.9403-1.4022,.8778-.2523,1.6088-.8624,2.0139-1.6809,.4645-1.7388,2.0665-.8553,3.5862,1.9736,1.4916,2.7782,3.0621,3.6055,4.6711,2.4539,.8291-.5925,.9692-1.1007,.7642-2.7887-.1384-1.1358-.3347-3.3987-.4365-5.0287-.1752-2.857-.1279-3.0025,1.4355-3.9876,.6834-.3664,1.2814-.8736,1.7545-1.4881Z"></path></g><g id="aw"><path id="ax" class="bc" d="M334.1936,2002.5677c-.4434-.8413-.6047-1.6459-.3506-1.7896s.1524-.3418-.212-.4382c-1.0696,.1181-2.1029,.4578-3.0341,.9973-10.4342,5.1707-32.0108,9.0793-51.1125,9.2616-6.7289,.0648-8.0242-.1175-16.0921-2.2681-4.9717-1.0925-9.7691-2.8648-14.257-5.2671-15.2894-8.1714-27.4694-17.1771-33.4498-24.7491-5.6516-8.2947-10.3705-17.1878-14.0712-26.5177-4.3785-11.9992-5.7542-24.8876-4.0068-37.5407,1.7195-13.6295,4.4538-21.4889,14.1344-40.6344,5.8963-11.6594,8.7463-15.2736,18.3305-23.2469,7.9267-5.8671,16.5253-10.7674,25.6131-14.597,4.9673-1.8264,16.8896-4.8096,18.0202-4.5081,.8304,.0099,1.6595-.0688,2.4732-.2349,8.9584-1.4933,20.9841-.6468,32.0756,2.2576,5.0061,1.0312,9.8024,2.8996,14.1869,5.5265,3.2935,1.8597,6.5658,3.6633,7.2722,4.0086,5.0708,2.4872,14.5778,9.9469,16.4637,12.9214,.4229,1.0039,1.5142,1.5499,2.5713,1.2865,1.7489,.0671,3.2211-1.2962,3.2883-3.0451,.0007-.0197,.0013-.0394,.0017-.0591,.9903-5.2881-3.2496-15.9344-9.4842-23.8166-3.5483-4.5256-7.7411-8.5065-12.4446-11.8154-1.8579-1.4355-4.7675-3.7772-6.466-5.2075-7.586-6.3748-15.796-10.8987-30.0178-16.5426-11.1766-4.7108-23.3086-6.712-35.4059-5.8402-13.7399,.5556-18.7091,1.1411-28.7875,3.3916-18.1341,4.0489-27.7813,8.1311-39.8194,16.8388-7.2981,4.9573-13.8826,10.8913-19.5696,17.6364-2.5573,3.0709-7.0549,8.3537-9.9908,11.7436-5.1351,5.7462-9.6289,12.0349-13.4016,18.7546-3.3103,5.287-6.1591,10.8492-8.5149,16.625h0c-2.9784,8.4486-5.0095,17.2018-6.0558,26.0987-.2697,3.3455-.2967,6.7062-.0807,10.0556,.2226,2.3118,.4978,6.3538,.6117,8.9829,.3506,7.9225,.673,10.2677,1.8228,12.9862,1.1737,3.3911,2.1625,6.8432,2.9622,10.3414,3.1112,12.9179,6.1627,20.9876,11.06,29.2344,6.6956,11.2791,10.3414,16.1605,15.8485,21.2084,1.6616,1.5249,4.5572,4.1944,6.4292,5.9331,5.4231,5.0321,21.5117,15.058,29.3484,18.2866,2.3505,.9692,6.7762,2.8623,9.833,4.2067,7.6719,3.3723,25.7061,7.9067,38.2103,9.6069,7.5323,1.2948,15.1849,1.7504,22.8175,1.3584,10.6201-.1928,19.3996-1.8667,25.2259-4.8078,1.9099-.917,3.9435-1.55,6.0365-1.879,3.9454-.6853,23.9147-12.5901,27.1048-16.1605,1.3742-1.5389,3.1428-3.4757,3.9262-4.3065,1.8194-1.93,1.9368-2.4226,.957-4.277Z"></path></g></g></g><path id="ay" class="bc" d="M686.6782,1636.6305l-1.9942,1.5951,4.9512,9.5815c6.4048,12.3942,14.6514,30.7294,19.1887,42.6611l3.5907,9.4386-6.1014-5.1239c-7.9432-6.6772-18.0102-10.787-21.0858-8.5985-1.169,.8306-2.0077,1.7691-1.8635,2.0846,.5191,1.1339,20.6301,16.6484,24.9098,19.2197l4.3768,2.6279-11.956,4.7665c-13.3731,5.3327-20.7083,7.6856-31.0583,9.9483-7.8947,1.7286-9.4278,2.8775-5.8789,4.4051,5.5715,2.4015,17.2483,.8157,30.6309-4.1557,12.463-4.6289,12.6167-4.6775,13.2666-4.103,.9439,.8373-4.8663,18.4808-6.607,20.057l-1.5479,1.4024,2.4689,.4544c1.6248,.318,3.304-.156,4.5224-1.2769,1.1299-.9533,2.539-2.0818,3.1309-2.5107,1.2351-.8926,2.4702-3.6514,6.6488-14.8456,1.6383-4.3876,3.3332-7.7409,3.7674-7.4511,.6351,.4247,7.8205,15.3268,10.0939,20.9267,.8926,2.202,10.1344,19.4381,15.1759,28.3064,5.0685,8.9155,8.3208,12.0086,5.3058,5.0483-.874-1.7436-1.3467-3.6606-1.3834-5.6106,.3627-1.3484-11.7119-33.5866-15.9674-42.6368-.9546-2.0306-1.3929-3.8496-.9722-4.0451,.442-.1839,.9494,.024,1.1353,.4651,.2049,.4477,1.1623,.7214,2.1264,.6082,3.8199,.4126,7.5984,1.1461,11.2953,2.1924,5.2492,1.3201,9.7555,2.0846,10.013,1.6976,.1518-1.048-.0574-2.1164-.5933-3.0297-.8171-1.7865-3.4599-3.1377-11.3641-5.8088-5.6631-1.9133-9.7083-3.7539-8.9963-4.091s5.1238-1.5964,9.8027-2.8019c9.6557-2.4905,22.3735-8.0349,25.29-11.0243h0c3.7229-3.8145,.5393-4.2365-7.9648-1.0557-6.1813,2.1493-12.4804,3.9437-18.8664,5.3745-6.0353,1.3322-12.405,2.926-14.1579,3.5421-2.7102,.9547-3.3871,.7835-4.5561-1.1541-.7564-1.2513-.9695-2.4594-.4746-2.6859,1.6356-.7484,7.0183-20.8525,6.5463-24.4459q-.4652-3.5233-2.334-1.6315c-2.1294,2.848-3.9628,5.9057-5.4717,9.1257l-3.6028,7.23-9.5208-21.609c-13.3583-30.3184-18.4902-37.408-23.9187-33.0637Z"></path><path id="az" class="bc" d="M191.8357,208.1202c-7.7412,2.5399-11.9906,8.1304-12.0136,15.7838-.0209,7.0655,3.2241,10.8294,11.0177,12.7772,8.3208,2.0797,19.2694-2.5776,20.8491-8.8669,.6277-2.5337-1.5378-12.3441-3.3622-15.1644-3.6133-5.6051-8.8606-7.0403-16.491-4.5297Z"></path><path id="ba" class="bc" d="M1165.3125,1360.1669c-4.8137,1.5794-7.456,5.0557-7.4704,9.8148-.013,4.3935,2.0048,6.734,6.8511,7.9452,5.1741,1.2932,11.9822-1.6028,12.9645-5.5137,.3903-1.5755-.9562-7.6759-2.0907-9.4296-2.2468-3.4854-5.5098-4.3779-10.2545-2.8167Z"></path><path id="bb" class="bc" d="M1185.4526,2002.3296c-5.7218,1.879-8.8709,6.0162-8.8877,11.6772-.0152,5.2269,2.3859,8.0104,8.1516,9.4538,6.1559,1.539,14.2573-1.9062,15.4245-6.5596,.4705-1.8758-1.1368-9.1259-2.4891-11.2188-2.6711-4.1402-6.5534-5.2071-12.1993-3.3526Z"></path></svg>